<?xml version="1.0" standalone="no"?>
<!DOCTYPE svg PUBLIC "-//W3C//DTD SVG 20010904//EN"
 "http://www.w3.org/TR/2001/REC-SVG-20010904/DTD/svg10.dtd">
<svg version="1.0" xmlns="http://www.w3.org/2000/svg"
 width="1595.000000pt" height="1595.000000pt" viewBox="0 0 1595.000000 1595.000000"
 preserveAspectRatio="xMidYMid meet">

<g transform="translate(0.000000,1595.000000) scale(0.100000,-0.100000)"
fill="#000000" stroke="none">
<path d="M4090 11389 c-33 -13 -68 -47 -88 -84 -16 -27 -17 -124 -19 -1065 -7
-2723 -6 -2665 -31 -2760 -61 -233 -168 -389 -338 -493 -164 -99 -413 -139
-644 -102 -252 40 -419 139 -559 329 -80 108 -121 138 -190 139 -62 1 -94 -13
-221 -93 -58 -37 -159 -99 -225 -138 -173 -103 -208 -142 -209 -232 0 -116
174 -353 383 -522 483 -389 1283 -497 1943 -262 322 115 636 376 803 670 92
160 165 384 207 629 l22 130 3 1849 c3 1657 2 1853 -12 1896 -17 51 -54 93
-98 109 -37 14 -692 14 -727 0z"/>
<path d="M6930 10728 c-161 -304 -295 -556 -297 -560 -2 -5 157 -8 354 -8
l358 0 119 281 c66 154 122 282 126 284 3 2 59 -123 125 -277 66 -154 125
-282 130 -284 6 -2 166 -3 357 -2 l347 3 -157 295 c-87 162 -220 413 -297 558
l-139 262 -367 0 -366 0 -293 -552z"/>
<path d="M11722 10808 c-138 -260 -271 -512 -297 -560 l-47 -88 359 0 358 0
119 281 c66 154 122 282 126 284 3 2 60 -123 126 -277 65 -154 124 -282 129
-284 6 -2 166 -3 357 -2 l347 3 -157 295 c-87 162 -220 413 -297 558 l-139
262 -367 0 -367 0 -250 -472z"/>
<path d="M7331 9979 c-352 -37 -714 -187 -995 -413 -358 -289 -595 -695 -688
-1184 -20 -103 -23 -149 -23 -387 0 -304 8 -367 75 -605 73 -255 165 -441 325
-655 309 -411 761 -674 1275 -741 152 -20 448 -14 582 10 339 63 619 215 871
472 l92 94 5 -199 c5 -218 8 -226 74 -275 26 -20 42 -21 362 -24 314 -3 337
-2 379 17 32 14 49 30 64 60 l21 41 -2 1809 -3 1810 -21 28 c-12 15 -36 37
-55 48 -32 19 -52 20 -369 20 -319 0 -337 -1 -370 -20 -67 -40 -74 -67 -80
-282 l-5 -192 -78 89 c-221 254 -591 435 -982 480 -105 12 -334 11 -454 -1z
m573 -830 c154 -24 338 -100 475 -196 140 -99 291 -282 361 -439 174 -386 135
-881 -93 -1213 -152 -222 -398 -392 -662 -458 -100 -25 -127 -27 -295 -28
-198 0 -260 9 -405 61 -267 96 -483 281 -624 536 -43 79 -97 243 -117 358 -23
133 -15 389 15 515 41 171 108 315 213 457 165 225 470 387 793 422 59 6 257
-3 339 -15z"/>
<path d="M10310 9897 c-39 -13 -70 -62 -70 -110 0 -31 -2 -26 218 -517 393
-877 457 -1021 557 -1240 59 -129 122 -269 140 -310 18 -41 96 -214 173 -385
483 -1067 482 -1063 482 -1134 0 -99 -95 -336 -193 -481 -146 -214 -374 -329
-654 -330 -83 0 -117 -11 -156 -48 -60 -57 -62 -64 -65 -348 -4 -298 1 -329
57 -385 53 -54 97 -62 276 -56 248 9 427 53 628 153 130 66 169 90 267 165
187 144 318 295 470 544 69 113 159 299 305 635 219 505 670 1525 935 2115 81
182 172 386 203 455 30 69 80 181 110 250 31 69 76 170 102 225 26 55 101 224
168 375 131 298 140 334 101 387 -38 51 -67 54 -434 51 -329 -3 -336 -3 -388
-27 -30 -13 -69 -42 -91 -67 -38 -43 -49 -67 -241 -524 -45 -107 -117 -278
-160 -380 -211 -500 -633 -1515 -685 -1647 -15 -40 -31 -73 -34 -73 -3 0 -37
73 -75 163 -84 197 -532 1244 -684 1597 -61 140 -160 372 -222 514 -61 143
-120 276 -130 296 -24 48 -97 112 -147 130 -53 19 -711 25 -763 7z"/>
<path d="M9390 4940 l0 -280 635 0 635 0 0 280 0 280 -635 0 -635 0 0 -280z"/>
</g>
</svg>
